<?xml version="1.0" standalone="no"?><!DOCTYPE svg PUBLIC "-//W3C//DTD SVG 1.1//EN" "http://www.w3.org/Graphics/SVG/1.1/DTD/svg11.dtd"><svg t="1703827659857" class="icon" viewBox="0 0 1058 1024" version="1.1" xmlns="http://www.w3.org/2000/svg" p-id="28308" xmlns:xlink="http://www.w3.org/1999/xlink" width="66.125" height="64"><path d="M389.785445 460.54081a190.624793 190.624793 0 0 1 380.163404 0z m581.650008-196.598789a481.178252 481.178252 0 0 0-197.68497-162.927174c89.066855-34.757797 155.866996-35.300888 190.081702 0s33.128525 86.351402 7.603268 162.927174zM133.989782 716.336472a481.721343 481.721343 0 0 0 185.736978 225.38259 380.163404 380.163404 0 0 1-121.109199 32.585435 108.618116 108.618116 0 0 1-85.265221-24.439076c-39.645612-39.645612-32.042344-124.367742 20.637442-233.528949z m861.884747-414.921201a391.025216 391.025216 0 0 0 27.69762-150.43609A168.90117 168.90117 0 0 0 977.95254 35.843978c-54.309058-54.309058-202.029695-46.162699-363.327596 24.982167h-34.757797A479.54898 479.54898 0 0 0 114.438522 421.981379l-8.68945 35.300888 22.266714-28.783801a666.91523 666.91523 0 0 1 190.624793-172.702804l-31.499254 31.499254A1110.077141 1110.077141 0 0 0 126.386514 488.78152a973.761406 973.761406 0 0 0-95.583941 204.745148A546.892212 546.892212 0 0 0 0.3895 865.143291 159.66863 159.66863 0 0 0 36.233478 977.56304a171.616623 171.616623 0 0 0 127.083196 46.162699 480.092071 480.092071 0 0 0 203.115876-54.309058 471.945712 471.945712 0 0 0 213.977687 49.964334 479.00589 479.00589 0 0 0 453.480633-325.854347l3.258543-10.318721h-271.545289v3.801634a199.857333 199.857333 0 0 1-351.379603 0A201.486604 201.486604 0 0 1 388.699263 597.399636h665.829049v-7.060178a500.186422 500.186422 0 0 0 2.715453-54.309058 479.54898 479.54898 0 0 0-61.369236-234.615129z" fill="#5E5C5C" p-id="28309"></path></svg>