<?xml version="1.0" standalone="no"?><!DOCTYPE svg PUBLIC "-//W3C//DTD SVG 1.1//EN" "http://www.w3.org/Graphics/SVG/1.1/DTD/svg11.dtd"><svg t="1703827360747" class="icon" viewBox="0 0 1024 1024" version="1.1" xmlns="http://www.w3.org/2000/svg" p-id="8782" xmlns:xlink="http://www.w3.org/1999/xlink" width="64" height="64"><path d="M872.338071 151.721925C789.567568 69.017417 675.84112 6.971537 517.147658 0h-13.753087C348.218876 6.972537 234.491428 68.953421 151.721925 151.721925 68.953421 234.491428 3.453771 348.218876 0 506.848342c3.453771 3.454771 0 3.454771 0 3.454771v6.843545c3.453771 158.630466 65.49865 272.421909 144.814383 355.191413 86.223274 82.704508 199.950722 144.750388 358.516193 151.657929h10.299316c158.693462-3.453771 275.87468-65.435655 358.644184-148.140162C954.978583 793.086334 1017.024463 679.294891 1023.932005 520.665425v-13.752087c-6.907541-158.694462-68.888425-272.421909-151.593934-355.191413zM261.995602 658.507271c-55.136339 0-41.384252-72.343196-41.384252-130.998301 0-62.04488-13.752087-117.245214 31.085936-127.607526 62.04588-10.298316 51.746564 69.017417 51.746563 130.998301 0 62.171871 13.753087 127.607526-41.447247 127.607526z m441.413687-17.206857c0 65.563646 0 113.792443-72.470187 103.430131 0 55.136339 17.205857 144.813383-48.228798 137.905842-51.810559-6.78055-34.604702-86.159278-34.604702-137.905842h-68.952421c-3.454771 51.810559 17.268853 134.515067-37.930481 137.905842-62.108876 3.453771-44.775027-79.314733-44.775027-137.905842-31.086936 3.453771-58.655105-3.454771-69.017416-27.633165-6.907541-17.205857-3.453771-48.227797-3.453771-75.860962V403.355215c0-3.453771 0-3.453771 3.453771-3.453771h375.851041c0.127992 65.562646 0.127992 162.084237 0.127991 241.39897zM327.558248 372.333275c3.389775-72.343196 41.385252-110.337673 93.06782-137.841847-10.362312-20.724624-27.568169-31.086936-34.476711-55.26533 20.660628-10.297316 37.867485 37.930481 44.775027 51.81056 41.384252-17.268853 117.245214-20.723624 158.629466 0 6.844545-10.425308 13.816083-20.723624 20.660628-31.085936 6.972537-10.298316 10.362312-27.568169 31.02194-24.114399 0 20.724624-20.659628 37.994477-31.02194 55.200335 48.292793 30.958944 89.677045 65.49965 93.194811 141.296617H327.558248zM765.390173 658.506271c-51.682568-3.454771-41.320256-68.889425-41.320256-127.607526 0-65.435655-13.816083-120.635989 34.412715-130.998301 17.333849-3.389775 41.384252 3.453771 48.292793 24.114399 6.907541 24.178394 0 72.471187 0 106.882902-0.063996 58.719101 13.752087 127.608526-41.385252 127.608526zM427.533609 279.265455c-24.178394 6.908541-10.298316 37.930481 6.908541 37.930481 24.178394-3.453771 20.660628-44.838022-6.908541-37.930481z m158.630466 0c-20.724624 6.908541-10.362312 37.930481 6.908541 37.930481 20.659628 0 24.114399-44.838022-6.908541-37.930481z" p-id="8783"></path></svg>