<svg width="75" height="710" viewBox="0 0 75 710" fill="none" xmlns="http://www.w3.org/2000/svg">
<g clip-path="url(#clip0_125_2)">
<path d="M7.77997 681.05L7.77997 697.31H66.94V660.1H52.24V681.05H7.77997Z" fill="black"/>
<path d="M6.78998 630.24C6.78998 644.84 16.38 660.56 37.44 660.56C58.54 660.56 68.15 644.84 68.15 630.24C68.15 615.64 58.54 599.92 37.44 599.92C16.38 599.92 6.78998 615.64 6.78998 630.24ZM37.44 616.42C47.75 616.42 52.45 623.56 52.45 630.19C52.45 636.82 47.75 643.96 37.44 643.96C27.21 643.96 22.55 636.82 22.55 630.19C22.55 623.57 27.21 616.42 37.44 616.42Z" fill="black"/>
<path d="M6.78998 509.64C6.78998 524.24 16.38 539.96 37.44 539.96C58.54 539.96 68.15 524.24 68.15 509.64C68.15 495.04 58.54 479.32 37.44 479.32C16.38 479.32 6.78998 495.04 6.78998 509.64ZM37.44 495.82C47.75 495.82 52.45 502.96 52.45 509.59C52.45 516.22 47.75 523.36 37.44 523.36C27.21 523.36 22.55 516.22 22.55 509.59C22.55 502.97 27.21 495.82 37.44 495.82Z" fill="black"/>
<path d="M43.86 556.81C49.45 558.23 52.65 562.67 52.65 568.99C52.58 576.78 46 582.65 37.35 582.65C28.15 582.65 21.97 577.17 21.97 569C21.97 562.86 24.59 558.94 30 557.04L30.47 556.87V541.04L29.66 541.16C13.02 543.56 7.10999 557.66 7.10999 569C7.10999 584 17.5 599.24 37.35 599.32C52.33 599.26 67.5 588.89 67.5 569.18V569C67.5 556.91 61.36 543.18 44.12 540.91L43.32 540.81L43.32 556.68L43.86 556.81Z" fill="black"/>
<path d="M7.77997 438.03L7.77997 454.98L48.48 478.2L48.64 478.29H55.97V453.13H66.94V438.02H55.96V433.07H42.51V438.02H7.77997V438.03ZM42.51 459.86L28.69 451.84L34.56 452.55H42.52V459.86H42.51Z" fill="black"/>
<path d="M43.67 411.9V395.09H29.14L29.14 411.9H22.39V390.54H7.77997L7.77997 428H66.94V389.79H52.41V411.9H43.67Z" fill="black"/>
<path d="M39.79 361.72L7.77997 374.98L7.77997 390.34H10.71L67.59 365.35V358.16L10.99 333.47L7.77997 333.41L7.77997 348.78L39.79 361.72Z" fill="black"/>
<path d="M43.67 315.14V298.33H29.14L29.14 315.14H22.39V293.78H7.77997L7.77997 331.24H66.94V293.03H52.41V315.14H43.67Z" fill="black"/>
<path d="M45.96 251.11C40.81 244.07 31.16 241.06 22.24 243.78C13.22 246.53 7.80997 254.19 7.77997 264.27L7.77997 290.3H66.94V274.12H49.94V267.56L66.93 257.66V240.05H63.88L45.96 251.11ZM28.84 258.82C32.11 258.84 35.41 260.71 35.41 264.27V274.12H22.39C22.39 273.2 22.38 272.26 22.37 271.33C22.35 268.98 22.33 266.6 22.39 264.28C22.42 260.48 25.65 258.8 28.84 258.82Z" fill="black"/>
<path d="M23.19 225.53H15.47C12.93 225.53 11.65 226.55 11.65 228.6C11.65 230.65 12.92 231.67 15.47 231.67H59.46C62.01 231.67 63.28 230.65 63.28 228.6C63.28 226.55 62.01 225.53 59.46 225.53H51.08V220.05H59.63C65.16 220.05 67.93 222.9 67.93 228.6C67.93 234.3 65.16 237.15 59.63 237.15H15.31C9.78001 237.15 7.01001 234.3 7.01001 228.6C7.01001 222.9 9.78001 220.05 15.31 220.05H23.2V225.53H23.19Z" fill="black"/>
<path d="M67.43 203.03H42.28C39.85 203.03 38.63 204.47 38.63 207.35V211H67.43V216.48H7.51001L7.51001 206.27C7.51001 203.34 7.90001 201.26 8.67001 200.05C9.72001 198.56 11.63 197.81 14.4 197.81H29.59C31.86 197.81 33.48 198.27 34.45 199.18C35.42 200.09 35.96 201.63 36.07 203.79H36.24C36.52 199.64 38.37 197.56 41.8 197.56H67.45V203.03H67.43ZM33.98 211V207.35C33.98 204.64 32.54 203.28 29.66 203.28H16.22C13.51 203.28 12.15 204.83 12.15 207.93V211H33.98Z" fill="black"/>
<path d="M67.43 191.41H7.51001L7.51001 176.89H12.16V185.94H33.99V177.31H38.64V185.94H62.79V176.89H67.44V191.41H67.43Z" fill="black"/>
<path d="M67.43 155.81L50.83 158.05V167.68L67.43 169.92V175.4L7.5 166.6V159.13L67.43 150.33V155.81ZM46.18 158.63L11.65 162.78V162.95L46.18 167.1V158.63Z" fill="black"/>
<path d="M67.43 145.85H12.15V151.99H7.51001L7.51001 134.23H12.16V140.37H67.44V145.85H67.43Z" fill="black"/>
<path d="M67.43 130.58H7.51001V125.1H67.44V130.58H67.43Z" fill="black"/>
<path d="M61.95 111.74L7.5 106.35L7.5 100.87L67.43 107.84V115.81L7.5 122.78V117.3L61.95 111.9V111.74Z" fill="black"/>
<path d="M67.43 98.54H7.51001V93.06H67.44V98.54H67.43Z" fill="black"/>
<path d="M23.03 76.38H15.73C13.02 76.38 11.66 77.46 11.66 79.62C11.66 81.78 13.02 82.86 15.73 82.86H22.04C24.2 82.86 26 82.44 27.44 81.61L42.38 72.9C44.65 71.57 47.08 70.91 49.68 70.91H59.14C65.01 70.91 67.94 73.84 67.94 79.71C67.94 85.69 65.01 88.67 59.14 88.67H50.92V83.19H58.81C61.8 83.19 63.29 82.03 63.29 79.7C63.29 77.49 61.8 76.38 58.81 76.38H50.43C48.44 76.38 46.53 76.91 44.7 77.96L30.67 86.01C27.96 87.56 25.41 88.33 23.03 88.33H15.81C9.95001 88.33 7.01001 85.43 7.01001 79.62C7.01001 73.81 9.80001 70.91 15.39 70.91H23.03V76.38Z" fill="black"/>
<path d="M67.43 66.5H7.51001V61.02H67.44V66.5H67.43Z" fill="black"/>
<path d="M57.8 55.05H17.13C10.38 55.05 7 51.84 7 45.42C7 39 10.38 35.79 17.13 35.79H57.8C64.55 35.79 67.93 39 67.93 45.42C67.93 51.84 64.56 55.05 57.8 55.05ZM17.3 49.57H57.64C61.4 49.57 63.28 48.19 63.28 45.42C63.28 42.65 61.4 41.27 57.64 41.27H17.3C13.54 41.27 11.66 42.65 11.66 45.42C11.66 48.19 13.54 49.57 17.3 49.57Z" fill="black"/>
<path d="M7.51001 15.21V10.4L67.44 10.4V18.29L14.15 25.26L67.44 25.26V30.07L7.51001 30.07L7.51001 22.01L58.8 15.21L7.51001 15.21Z" fill="black"/>
</g>
<defs>
<clipPath id="clip0_125_2">
<rect width="709.51" height="74.8" fill="white" transform="matrix(0 -1 1 0 0 709.51)"/>
</clipPath>
</defs>
</svg>
