<?xml version="1.0" encoding="utf-8"?>
<!-- Generator: Adobe Illustrator 24.1.0, SVG Export Plug-In . SVG Version: 6.00 Build 0)  -->
<svg version="1.1" id="图层_1" xmlns="http://www.w3.org/2000/svg" xmlns:xlink="http://www.w3.org/1999/xlink" x="0px" y="0px"
	 viewBox="0 0 75 710" style="enable-background:new 0 0 75 710;" xml:space="preserve">
<style type="text/css">
	.st0{fill-rule:evenodd;clip-rule:evenodd;fill:#15499A;}
	.st1{fill:#F08519;}
	.st2{fill-rule:evenodd;clip-rule:evenodd;fill:#00A2E9;}
	.st3{fill:#332C2B;}
</style>
<g>
	<path class="st0" d="M56.4,487.6v-12.5l-6.6-4.1v7.2c-11.7-14.5-25.5-21.1-34.9-15.4c-9,5.5-11.6,21-7.6,38.8
		c-3-15.6-0.6-28.9,7.3-33.8c9.5-5.9,23.9,2.3,35.2,18.7V517l6.6-19.1c11.6,23.8,11.6,48.9,0.2,56c-5.6,3.5-13,2-20.5-3.2
		c8.9,7.1,18,9.4,24.8,5.2c12.6-7.7,12.5-34.8-0.2-60.6C59.4,492.6,58,490,56.4,487.6z"/>
	<path class="st1" d="M14.6,530.4v-57c0,0,1.8,14.2,5.6,25c-0.8,0.9-4-1.7-3.9,0.6c0,2.6,4.8,10.4,4.8,10.4s-6.3-2.2-3.6,2.3
		c1.5,2.5,3.3,5,4.5,7.6c4,8.4,0.2,11.2-3,7.5c3.8,5.9,12.6,4.3,5-11.9c12.2,23.3,19.6,30.4,19.6,30.4L14.6,530.4z"/>
	<path class="st2" d="M56.4,500.2v49.5c0,0-35.7-29.1-41.8-80.6c0,0,6.2,36.5,35.2,50.2L56.4,500.2z"/>
</g>
<g>
	<path class="st3" d="M44.3,351.2l-4.2-11.8l-17.3-3.9v11.1l41.9,18.5v7.9l-41.9-17.8v11.2l-6.1-0.7v-13.1l-5.6-2.4v-8.8l5.6,2.5
		v-16.5l-5.6,2.2v-8.3l5.6-1.8v-11.4l6.1,0.7v18.8v3.7c0,0,0.3-2.7,1.7-3.3l12.7,3L30.9,313l6.5,1l6.5,18.6l15.1,3.6v-22.4l5.7,1.1
		v30.1l-17.8-4l3.9,11.2L44.3,351.2z"/>
</g>
<g>
	<polygon class="st3" points="17.4,427.8 17.4,433.5 10.2,435 10.2,428.6 	"/>
	<path class="st3" d="M31.9,431.2l4.3,4.5v-4.3l29.4,3.8v7.5l-26-3.4l1.9,2v7.3l-16.2-16.2v11.1l-5.7-0.8v-19.2l5.7,0.7l4,4.2v-2.6
		c4.3-0.8,8.7-1.6,13-2.4v5.8C38.8,430,35.3,430.6,31.9,431.2z"/>
	<path class="st3" d="M21.7,384.8v14v3.8c0,0,0.3-3.7,2.5-3.5l4.9,0.6v-12.5l6.1,0.9v12.4l8.9,1.1v-15.3l6.1,0.9v15.3l15.4,2v8.1
		l-15.4-2v15.1l-6.1-0.9v-15.2l-8.9-1.1v12.4l-6.1-0.9v-12.5l-7.3-0.8v14l-6.1-0.9v-7.2l-5.4,1.9v-7.5l5.4-1.1v-8.4l-5.4-2.6v-7.3
		l5.4,3.3v-7.3L21.7,384.8z"/>
</g>
<path class="st3" d="M35.5,294.5l-9.6-10.9v11.8l-5.8-0.7v-13.2l-4.6-0.6v4.9l2.8,2.1v7l-10.1-6.7v-7.9l1.5,1.1v-20.2l5.8,0.9v11
	v4.1c0,0,0.3-3.5,2.2-3.8l2.4,0.3v-13l5.8,0.8v11.8l9.6-8.5v9.4l-6,5l6,6.1L35.5,294.5L35.5,294.5z M8.2,256.9v-25.9l27.3,3.8v25.7
	L8.2,256.9z M29.4,241.9l-15-2v10.1v4.1c0,0,0.3-3.7,2.4-3.8l12.6,1.7V241.9z M67.7,295.8L39.4,292v-53.5l28.3,3.8V295.8z
	 M47.5,284.1l3.4,0.4v-35.6l-5.8-0.8v35.6v4.1C45,287.9,45.4,284.2,47.5,284.1z M56.1,285.3l6.1,0.8v-35.6l-6.1-0.8V285.3z"/>
<g>
	<polygon class="st3" points="20.5,200.2 20.5,207.1 10.3,209.9 10.3,202.2 	"/>
	<polygon class="st3" points="10.3,155 16.3,155.8 16.3,191.2 10.3,190.5 	"/>
	<path class="st3" d="M25.3,195.6V154l5.9,0.7v25.9v3.8c0,0,0.4-3.4,2.2-2.7l0.3,0.1l0,0l0,0l14.2,7.3V167l-11.4,3.6v-7.1l17.3-5.4
		v41.6l-22.6-10.8v7.5L25.3,195.6z"/>
	<polygon class="st3" points="56,204.1 59.6,198.4 59.6,157.8 65.6,158.7 65.6,200.6 61.3,207.5 65.6,210.6 65.6,218.7 56.1,212 
		30.5,208.6 30.5,214.5 24.3,213.8 24.3,199.9 	"/>
</g>
</svg>
