<?xml version="1.0" encoding="utf-8"?>
<!-- Generator: Adobe Illustrator 27.0.0, SVG Export Plug-In . SVG Version: 6.00 Build 0)  -->
<svg version="1.1" id="Layer_1" xmlns="http://www.w3.org/2000/svg" xmlns:xlink="http://www.w3.org/1999/xlink" x="0px" y="0px"
	 viewBox="0 0 255.12 304.75" style="enable-background:new 0 0 255.12 304.75;" xml:space="preserve">
<polygon points="0,0.63 0,99.28 61.42,99.28 61.42,75.03 26.84,75.03 26.84,0.63 "/>
<path d="M107.58,1.38c-24.11,0-50.05,15.83-50.05,50.59c0,34.83,25.94,50.69,50.05,50.69c24.11,0,50.05-15.86,50.05-50.69
	C157.63,17.21,131.69,1.38,107.58,1.38 M130.38,51.97c0,17.02-11.79,24.78-22.73,24.78c-10.95,0-22.74-7.75-22.74-24.78
	c0-16.88,11.79-24.57,22.74-24.57C118.6,27.39,130.38,35.08,130.38,51.97"/>
<path d="M50.54,101.96c-24.1,0-50.05,15.83-50.05,50.59c0,34.83,25.94,50.69,50.05,50.69s50.05-15.86,50.05-50.69
	C100.58,117.79,74.64,101.96,50.54,101.96 M73.34,152.55c0,17.02-11.79,24.78-22.74,24.78s-22.73-7.75-22.73-24.78
	c0-16.88,11.79-24.57,22.73-24.57S73.34,135.67,73.34,152.55"/>
<path d="M228.7,62.2c-2.34,9.22-9.67,14.51-20.1,14.51c-12.85-0.12-22.54-10.98-22.54-25.25c0-15.19,9.05-25.39,22.53-25.39
	c10.14,0,16.6,4.33,19.74,13.25l0.27,0.78h26.13l-0.19-1.33c-3.97-27.47-27.23-37.22-45.95-37.22c-24.77,0-49.91,17.14-50.05,49.92
	c0.1,24.73,17.22,49.77,49.75,49.77h0.3c19.96,0,42.62-10.14,46.36-38.59l0.17-1.32h-26.2L228.7,62.2z"/>
<path d="M166.93,105.02h-27.98l-38.33,67.17l-0.15,0.27v12.09h41.53v18.11h24.93v-18.11h8.17v-22.21h-8.17V105.02z M130.88,162.34
	l13.24-22.82l-1.17,9.68v13.13H130.88z"/>
<polygon points="208.89,163.31 246.64,163.31 246.64,139.33 208.89,139.33 208.89,128.18 254.16,128.18 254.16,104.07 
	182.33,104.07 182.33,201.71 255.38,201.71 255.38,177.73 208.89,177.73 "/>
<polygon points="48.32,258.86 26.43,206.02 1.07,206.02 1.07,210.86 42.33,304.75 54.2,304.75 94.95,211.32 95.04,206.02 
	69.67,206.02 "/>
<polygon points="124.12,265.87 157.2,265.87 157.2,241.64 124.12,241.64 124.12,230.38 164.8,230.38 164.8,206.02 97.28,206.02 
	97.28,304.66 166.04,304.66 166.04,280.44 124.12,280.44 "/>
<path d="M236.23,269.69c11.74-8.59,16.76-24.67,12.22-39.56c-4.59-15.04-17.35-24.05-34.16-24.12h-43.4v98.64h26.97v-28.34h10.94
	l16.51,28.34h29.36v-5.09L236.23,269.69z M223.38,241.14c-0.03,5.45-3.16,10.96-9.09,10.96h-16.43v-21.72c1.54,0,3.1-0.02,4.66-0.03
	c3.92-0.03,7.88-0.06,11.76,0.03C220.6,230.44,223.41,235.83,223.38,241.14"/>
</svg>

