<svg width="698" height="154" viewBox="0 0 698 154" fill="none" xmlns="http://www.w3.org/2000/svg">
<path fill-rule="evenodd" clip-rule="evenodd" d="M167.433 120.268H196.876L206.589 104.696H189.657C223.824 77.0677 239.584 44.4504 225.978 22.2268C212.901 0.872424 176.315 -5.09923 134.249 4.31179C171.024 -2.71813 202.507 3.02675 214.072 21.6598C228.019 44.0724 208.668 78.126 169.814 104.696H97.7386L142.866 120.268C86.6646 147.594 27.4394 147.783 10.5827 120.646C2.26771 107.304 5.78267 89.8047 18.1795 72.2299C1.5118 93.3197 -3.96851 114.825 5.85826 130.85C24.0756 160.633 88.1386 160.444 148.913 130.435C155.414 127.26 161.575 123.858 167.433 120.268Z" fill="#15499A"/>
<path d="M64.8945 21.4709H199.446C199.446 21.4709 166.035 25.5905 140.409 34.737C138.217 32.7338 144.416 25.4394 138.973 25.4772C132.888 25.515 114.255 36.8535 114.255 36.8535C114.255 36.8535 119.395 22.0756 108.888 28.4252C103.03 31.9779 96.9827 36.211 90.8976 39.1212C71.1307 48.6079 64.5165 39.4614 73.1716 31.8646C59.1496 40.8976 62.9291 61.685 101.254 43.6567C46.2992 72.4189 29.5937 89.8803 29.5937 89.8803L64.8945 21.4709Z" fill="#F08519"/>
<path fill-rule="evenodd" clip-rule="evenodd" d="M134.438 120.268H17.4236C17.4236 120.268 86.2488 35.8331 207.836 21.4709C207.836 21.4709 121.625 36.1732 89.348 104.696L134.438 120.268Z" fill="#00A2E9"/>
<path d="M273.109 41.011H263.282L260.561 28.652H271.71L273.109 41.011ZM267.213 66.1449L259.389 73.6662H266.872L260.258 124.425H247.257L253.153 79.5244L249.713 82.8882H237.014L265.058 54.8063H245.82L247.219 44.9417H280.29L279.043 54.8063L271.786 61.7606H276.208C277.568 69.2441 278.967 76.7276 280.328 84.211H270.236C269.254 78.126 268.157 72.1165 267.213 66.1449ZM389.934 87.9906L410.986 80.6205L417.902 49.7039H398.211L365.178 124.425H351.08L382.866 49.7039H362.835L364.082 38.8567H387.477L391.748 28.8032H407.471L403.011 38.8567H432.567L428.523 28.9921H443.376L446.551 38.8567H466.923L465.676 49.7039H432.151H425.575C425.575 49.7039 430.45 50.1197 431.471 52.652L426.104 75.3291L458.154 64.1417L456.491 75.7827L423.269 87.3858L416.92 114.334H456.945L454.866 124.425H401.197L408.302 92.6016L388.271 99.5937L389.934 87.9906ZM347.301 48.6079H323.074H316.46C316.46 48.6079 322.885 49.137 322.545 52.8787L321.487 61.2315H342.954L341.405 71.7386H319.975L318.047 87.1591H344.466L342.954 97.7795H316.498L312.983 124.425H298.998L302.513 97.7795H276.246L277.757 87.1591H304.063L306.104 71.7386H284.674L286.186 61.2315H307.654L309.09 48.6079H284.863L286.375 37.9874H298.809L295.483 28.652H308.447L310.299 37.9874H324.888L329.31 28.652H342.009L336.227 37.9874H348.813L347.301 48.6079ZM478.942 72.6835L496.403 57.1874H477.43L478.564 47.852H499.88L500.825 40.4819H493.039L489.6 45.0173H478.261L489.071 28.652H501.808L499.994 31.1465H532.535L531.137 40.4819H513.298H506.683C506.683 40.4819 512.353 40.9354 512.731 44.0724L512.202 47.852H533.216L531.968 57.1874H513.146L526.828 72.6835H511.71L503.584 63.0079L493.757 72.6835H478.942ZM539.452 28.652H581.102L575.017 72.6835H533.48L539.452 28.652ZM563.792 62.8189L567.118 38.6299H550.791H544.176C544.176 38.6299 550.11 39.1213 550.261 42.4473L547.465 62.8189H563.792ZM476.825 124.425L482.986 78.7685H569.197L563.036 124.425H476.825ZM495.609 91.9591L494.891 97.4016H552.302L553.55 88.0662H496.139H489.524C489.524 88.0662 495.534 88.5953 495.609 91.9591ZM493.757 105.868L492.51 115.619H549.959L551.206 105.868H493.757ZM617.197 46.3402H605.178L600.378 28.652H613.568L617.197 46.3402ZM695.32 28.652L693.959 39.0835H632.655L634.016 28.652H695.32ZM625.02 54.8063H697.134L695.887 64.9732H651.061H644.447C644.447 64.9732 650.419 65.6158 649.096 68.7528L648.831 69.2819L636.094 93.9244H674.494L668.296 74.0819H680.58L689.953 104.016H617.953L636.661 64.9732H623.622L625.02 54.8063ZM610.356 107.909L620.183 113.994H690.482L688.894 124.425H616.441L604.573 117.055L599.168 124.425H585.146L596.636 108.022L602.608 63.5748H592.252L593.613 53.0299H617.688L610.356 107.909Z" fill="#332C2B"/>
</svg>
